<svg width="1448" height="959" viewBox="0 0 1448 959" fill="none" xmlns="http://www.w3.org/2000/svg">
<g clip-path="url(#clip0_590_177)" filter="url(#filter0_d_590_177)">
<rect width="1440" height="951" transform="translate(4)" fill="white"/>
<path d="M-3 0H1544V948H-3V0Z" fill="#D2D385" fill-opacity="0.57"/>
<g opacity="0.5">
<g opacity="0.86">
<path d="M182.657 762.348L196.706 758.921C196.706 758.921 196.264 873.296 196.706 870.606C196.813 869.977 178.236 866.795 178.236 866.795L182.657 762.348Z" fill="#304851"/>
<path d="M219.431 533.896L206.715 554.392L187.095 565.872L177.954 321L219.431 533.896Z" fill="#3D754E"/>
<path d="M160.494 554.539L131.394 702.074L144.575 719.02L144.945 718.543C151.838 664.304 164.414 612.476 165.648 558.369L160.494 554.539Z" fill="#254C30"/>
<path d="M192.786 558.757L163.523 569.864L144.945 718.627L191.839 659.188L192.786 558.757Z" fill="#2C5B3C"/>
<path d="M191.839 659.188L228.174 684.667L234.601 680.656L208.426 551.333L191.839 558.669V659.188Z" fill="#3D754E"/>
<path d="M219.431 533.896L206.544 547.301L192.786 558.668L164.183 570.021L150.405 565.056L156.45 575.574L163.523 580.74L209.489 556.566L219.431 533.896Z" fill="#1F3A24"/>
<path d="M195.91 869.511L238.339 897.067C238.068 894.381 230.025 775.876 233.165 776.829L192.782 758.921L195.91 869.511Z" fill="#3D754E"/>
<path d="M232.433 891.715L240.42 985.556L186.733 996L178.24 865.288L195.91 867.998L232.433 891.715Z" fill="#3D754E"/>
<path d="M199.269 870.659L186.733 996L104.061 979.914C103.269 981.51 118.683 881.811 118.683 881.811C120.661 881.207 199.269 870.659 199.269 870.659Z" fill="#2C5B3C"/>
<path d="M177.953 321L150.405 565.057L163.523 569.781L178.459 329.107L177.953 321Z" fill="#254C30"/>
<path d="M192.786 558.669L178.459 329.107C171.984 409.336 165.803 489.551 163.523 569.776L164.183 570.011L192.786 558.669Z" fill="#2C5B3C"/>
<path d="M233.034 897.072L240.42 985.556L257 959.777L247.138 901.295L238.411 892.874L233.034 897.072Z" fill="#5C966C"/>
<path d="M96.4794 872.963L107.476 890.09L176.799 883.368L198.083 885.607L233.356 902.056L247.138 904.408L252.089 885.607L232.433 893.232L199.269 870.66L178.24 866.8L96.4794 872.963Z" fill="#1F3A24"/>
<path d="M229.225 780.993L232.433 893.232L252.089 885.607L234.538 783.944L229.225 780.993Z" fill="#5C966C"/>
<path d="M136.369 711.03L118.686 774.344L139.843 776.828L145.832 719.888L136.369 711.03Z" fill="#254C30"/>
<path d="M199.269 870.66L118.925 875.658L139.843 776.829L192.786 763.703L199.269 870.66Z" fill="#2C5B3C"/>
<path d="M192.352 659.635L147.902 700.189C147.635 699.143 139.839 776.824 139.839 776.824L192.782 758.916L192.352 659.635Z" fill="#2C5B3C"/>
<path d="M206.063 558.369L228.369 685.801L234.602 680.655L209.49 556.567L206.063 558.369Z" fill="#5C966C"/>
<path d="M180.692 335.059L206.544 547.302L219.431 533.897L178.527 323.957L180.692 335.059Z" fill="#5C966C"/>
<path d="M131.394 702.069L144.945 718.626L191.839 659.187L228.174 684.667L234.602 680.655L231.179 695.415L192.352 667.981L144.523 730.833L133.77 720.33L131.394 702.069Z" fill="#1F3A24"/>
<path d="M129.058 779.318L139.843 776.828L118.925 875.658L96.4794 872.962L129.058 779.318Z" fill="#254C30"/>
<path d="M107.476 890.089L118.118 887.084L104.065 979.914L94 957.616L107.476 890.089Z" fill="#254C30"/>
<path d="M118.686 774.344L139.178 776.632L192.786 758.925L248.057 768.947L234.538 786.889L192.786 763.703L138.446 783.865L118.686 774.344Z" fill="#1F3A24"/>
<path d="M192.352 667.982L191.728 759.274L233.324 776.829L248.216 768.947L230.674 692.096L192.352 667.982Z" fill="#3D754E"/>
<path d="M224.704 688.448L233.324 776.828L248.217 768.947L231.267 692.597L224.704 688.448Z" fill="#5C966C"/>
</g>
<g opacity="0.86">
<path d="M94.6064 800.579L111.499 797.507C111.499 797.507 110.968 900.021 111.499 897.609C111.628 897.046 89.2896 894.194 89.2896 894.194L94.6064 800.579Z" fill="#304851"/>
<path d="M138.825 595.818L123.535 614.188L99.9427 624.478L88.9504 405L138.825 595.818Z" fill="#3D754E"/>
<path d="M67.9561 614.32L32.9646 746.555L48.8141 761.743L49.2592 761.316C57.5477 712.702 72.6699 666.248 74.1534 617.753L67.9561 614.32Z" fill="#254C30"/>
<path d="M106.785 618.101L71.5976 628.057L49.2589 761.392L105.646 708.117L106.785 618.101Z" fill="#2C5B3C"/>
<path d="M105.646 708.117L149.338 730.954L157.067 727.358L125.592 611.447L105.646 618.022V708.117Z" fill="#3D754E"/>
<path d="M138.824 595.818L123.328 607.833L106.785 618.021L72.3917 628.197L55.8242 623.747L63.0935 633.174L71.5973 637.804L126.87 616.138L138.824 595.818Z" fill="#1F3A24"/>
<path d="M110.542 896.628L161.561 921.327C161.235 918.919 151.564 812.704 155.34 813.557L106.781 797.507L110.542 896.628Z" fill="#3D754E"/>
<path d="M154.459 916.53L164.063 1000.64L99.507 1010L89.2946 892.843L110.542 895.273L154.459 916.53Z" fill="#3D754E"/>
<path d="M114.581 897.657L99.5073 1010L0.0979804 995.582C-0.854335 997.012 17.68 907.652 17.68 907.652C20.0584 907.111 114.581 897.657 114.581 897.657Z" fill="#2C5B3C"/>
<path d="M88.9496 405L55.8242 623.747L71.5973 627.981L89.5571 412.266L88.9496 405Z" fill="#254C30"/>
<path d="M106.786 618.022L89.5577 412.267C81.7717 484.176 74.34 556.072 71.5979 627.977L72.3922 628.188L106.786 618.022Z" fill="#2C5B3C"/>
<path d="M155.182 921.331L164.064 1000.64L184 977.533L172.142 925.116L161.647 917.569L155.182 921.331Z" fill="#5C966C"/>
<path d="M-9.0188 899.722L4.20355 915.073L87.5621 909.048L113.155 911.055L155.569 925.798L172.141 927.906L178.094 911.055L154.459 917.89L114.581 897.658L89.2945 894.198L-9.0188 899.722Z" fill="#1F3A24"/>
<path d="M150.602 817.29L154.459 917.89L178.095 911.055L156.991 819.935L150.602 817.29Z" fill="#5C966C"/>
<path d="M38.9459 754.583L17.6838 811.33L43.1236 813.557L50.3258 762.522L38.9459 754.583Z" fill="#254C30"/>
<path d="M114.581 897.658L17.9714 902.138L43.1241 813.558L106.786 801.794L114.581 897.658Z" fill="#2C5B3C"/>
<path d="M106.264 708.517L52.8145 744.866C52.4938 743.928 43.119 813.553 43.119 813.553L106.78 797.503L106.264 708.517Z" fill="#2C5B3C"/>
<path d="M122.75 617.753L149.573 731.97L157.067 727.358L126.87 616.138L122.75 617.753Z" fill="#5C966C"/>
<path d="M92.243 417.601L123.329 607.834L138.825 595.819L89.6396 407.65L92.243 417.601Z" fill="#5C966C"/>
<path d="M32.9646 746.551L49.2592 761.391L105.647 708.116L149.338 730.953L157.067 727.358L152.951 740.587L106.264 715.998L48.7519 772.332L35.8215 762.918L32.9646 746.551Z" fill="#1F3A24"/>
<path d="M30.1553 815.789L43.124 813.558L17.9714 902.138L-9.0188 899.722L30.1553 815.789Z" fill="#254C30"/>
<path d="M4.20379 915.073L17.0003 912.379L0.102644 995.582L-12 975.597L4.20379 915.073Z" fill="#254C30"/>
<path d="M17.6838 811.33L42.3245 813.381L106.785 797.51L173.246 806.493L156.99 822.575L106.785 801.793L41.4438 819.864L17.6838 811.33Z" fill="#1F3A24"/>
<path d="M106.264 715.999L105.513 797.824L155.53 813.558L173.438 806.494L152.344 737.612L106.264 715.999Z" fill="#3D754E"/>
<path d="M145.166 734.342L155.532 813.558L173.439 806.494L153.058 738.061L145.166 734.342Z" fill="#5C966C"/>
</g>
<g opacity="0.86">
<path d="M-5.95441 731.848L11.8001 727.959C11.8001 727.959 11.2418 857.754 11.8001 854.701C11.9359 853.987 -11.5425 850.377 -11.5425 850.377L-5.95441 731.848Z" fill="#304851"/>
<path d="M40.5201 472.598L24.4503 495.856L-0.34593 508.884L-11.899 231L40.5201 472.598Z" fill="#3D754E"/>
<path d="M6.8463 500.811L-30.1368 513.415L-53.6152 682.233L5.64906 614.781L6.8463 500.811Z" fill="#2C5B3C"/>
<path d="M5.64868 614.781L51.5695 643.695L59.6927 639.143L26.6125 492.385L5.64868 500.71V614.781Z" fill="#3D754E"/>
<path d="M40.5195 472.597L24.2333 487.81L6.84586 500.709L-29.3024 513.593L-46.7151 507.959L-39.075 519.895L-30.1372 525.757L27.9555 498.324L40.5195 472.597Z" fill="#1F3A24"/>
<path d="M10.7944 853.458L64.4157 884.73C64.0737 881.682 53.9088 747.2 57.8772 748.281L6.84106 727.959L10.7944 853.458Z" fill="#3D754E"/>
<path d="M56.9521 878.656L67.0467 985.148L-0.803401 997L-11.5369 848.666L10.7948 851.742L56.9521 878.656Z" fill="#3D754E"/>
<path d="M15.0394 854.762L-0.803894 997L-105.285 978.745C-106.286 980.556 -86.8061 867.416 -86.8061 867.416C-84.3063 866.731 15.0394 854.762 15.0394 854.762Z" fill="#2C5B3C"/>
<path d="M6.84624 500.71L-11.2607 240.2C-19.444 331.246 -27.2548 422.275 -30.1368 513.315L-29.302 513.582L6.84624 500.71Z" fill="#2C5B3C"/>
<path d="M57.7114 884.735L67.0466 985.148L88.0002 955.893L75.5366 889.527L64.5066 879.971L57.7114 884.735Z" fill="#5C966C"/>
<path d="M-114.867 857.376L-100.97 876.812L-13.3581 869.183L13.5407 871.724L58.1184 890.391L75.5362 893.06L81.7932 871.724L56.9516 880.378L15.0394 854.762L-11.5373 850.382L-114.867 857.376Z" fill="#1F3A24"/>
<path d="M52.8979 753.007L56.9517 880.378L81.7933 871.724L59.6124 756.355L52.8979 753.007Z" fill="#5C966C"/>
<path d="M15.0392 854.762L-86.4995 860.434L-60.0636 748.281L6.84607 733.386L15.0392 854.762Z" fill="#2C5B3C"/>
<path d="M6.29769 615.288L-49.8786 661.309C-50.2156 660.122 -60.0687 748.276 -60.0687 748.276L6.84075 727.954L6.29769 615.288Z" fill="#2C5B3C"/>
<path d="M23.6255 500.37L51.8166 644.982L59.6933 639.143L27.9561 498.325L23.6255 500.37Z" fill="#5C966C"/>
<path d="M-8.43851 246.954L24.234 487.81L40.5203 472.598L-11.1747 234.355L-8.43851 246.954Z" fill="#5C966C"/>
<path d="M-70.7413 663.443L-53.6153 682.232L5.64896 614.78L51.5698 643.694L59.6929 639.142L55.3672 655.892L6.29793 624.76L-54.1486 696.085L-67.7387 684.166L-70.7413 663.443Z" fill="#1F3A24"/>
<path d="M-86.8013 745.461L-60.9035 748.058L6.84608 727.964L76.698 739.337L59.6121 759.698L6.84608 733.386L-61.829 756.266L-86.8013 745.461Z" fill="#1F3A24"/>
<path d="M6.29799 624.76L5.50842 728.36L58.0783 748.281L76.8993 739.337L54.7288 652.126L6.29799 624.76Z" fill="#3D754E"/>
<path d="M47.1847 647.985L58.0787 748.281L76.8997 739.337L55.4785 652.694L47.1847 647.985Z" fill="#5C966C"/>
</g>
<g opacity="0.86">
<path d="M1155.59 779.001L1173.43 775.569C1173.43 775.569 1172.87 890.114 1173.43 887.419C1173.57 886.79 1149.97 883.603 1149.97 883.603L1155.59 779.001Z" fill="#304851"/>
<path d="M1202.29 550.211L1186.14 570.737L1161.23 582.235L1149.62 337L1202.29 550.211Z" fill="#3D754E"/>
<path d="M1127.44 570.885L1090.49 718.639L1107.23 735.609L1107.7 735.132C1116.45 680.812 1132.42 628.907 1133.99 574.721L1127.44 570.885Z" fill="#254C30"/>
<path d="M1168.45 575.109L1131.29 586.233L1107.7 735.216L1167.25 675.688L1168.45 575.109Z" fill="#2C5B3C"/>
<path d="M1167.25 675.688L1213.39 701.205L1221.55 697.188L1188.31 567.673L1167.25 575.02V675.688Z" fill="#3D754E"/>
<path d="M1202.29 550.211L1185.92 563.636L1168.45 575.02L1132.13 586.39L1114.63 581.418L1122.31 591.951L1131.29 597.125L1189.67 572.915L1202.29 550.211Z" fill="#1F3A24"/>
<path d="M1172.42 886.323L1226.3 913.92C1225.96 911.23 1215.74 792.549 1219.73 793.503L1168.45 775.569L1172.42 886.323Z" fill="#3D754E"/>
<path d="M1218.8 908.561L1228.94 1002.54L1160.76 1013L1149.98 882.094L1172.42 884.809L1218.8 908.561Z" fill="#3D754E"/>
<path d="M1176.69 887.473L1160.76 1013L1055.78 996.889C1054.77 998.487 1074.35 898.641 1074.35 898.641C1076.86 898.036 1176.69 887.473 1176.69 887.473Z" fill="#2C5B3C"/>
<path d="M1149.62 337L1114.63 581.418L1131.29 586.149L1150.26 345.119L1149.62 337Z" fill="#254C30"/>
<path d="M1168.45 575.02L1150.26 345.118C1142.03 425.466 1134.19 505.8 1131.29 586.143L1132.13 586.379L1168.45 575.02Z" fill="#2C5B3C"/>
<path d="M1219.56 913.926L1228.94 1002.54L1250 976.723L1237.48 918.155L1226.39 909.721L1219.56 913.926Z" fill="#5C966C"/>
<path d="M1046.15 889.78L1060.11 906.933L1148.15 900.201L1175.18 902.443L1219.97 918.917L1237.48 921.273L1243.76 902.443L1218.8 910.08L1176.69 887.474L1149.98 883.609L1046.15 889.78Z" fill="#1F3A24"/>
<path d="M1214.73 797.674L1218.8 910.08L1243.76 902.443L1221.47 800.629L1214.73 797.674Z" fill="#5C966C"/>
<path d="M1096.81 727.607L1074.35 791.014L1101.22 793.503L1108.82 736.479L1096.81 727.607Z" fill="#254C30"/>
<path d="M1176.69 887.474L1074.65 892.48L1101.22 793.504L1168.45 780.359L1176.69 887.474Z" fill="#2C5B3C"/>
<path d="M1167.9 676.135L1111.45 716.75C1111.11 715.702 1101.21 793.498 1101.21 793.498L1168.45 775.564L1167.9 676.135Z" fill="#2C5B3C"/>
<path d="M1185.31 574.721L1213.64 702.342L1221.56 697.188L1189.66 572.916L1185.31 574.721Z" fill="#5C966C"/>
<path d="M1153.09 351.079L1185.92 563.636L1202.29 550.211L1150.34 339.96L1153.09 351.079Z" fill="#5C966C"/>
<path d="M1090.49 718.633L1107.7 735.215L1167.25 675.688L1213.39 701.205L1221.55 697.187L1217.21 711.97L1167.9 684.495L1107.16 747.44L1093.5 736.921L1090.49 718.633Z" fill="#1F3A24"/>
<path d="M1087.52 795.996L1101.22 793.502L1074.65 892.478L1046.15 889.779L1087.52 795.996Z" fill="#254C30"/>
<path d="M1060.11 906.932L1073.63 903.922L1055.78 996.889L1043 974.558L1060.11 906.932Z" fill="#254C30"/>
<path d="M1074.35 791.014L1100.37 793.306L1168.45 775.573L1238.64 785.61L1221.47 803.579L1168.45 780.358L1099.44 800.55L1074.35 791.014Z" fill="#1F3A24"/>
<path d="M1167.9 684.496L1167.11 775.924L1219.93 793.504L1238.85 785.612L1216.57 708.647L1167.9 684.496Z" fill="#3D754E"/>
<path d="M1208.99 704.991L1219.93 793.503L1238.85 785.61L1217.32 709.147L1208.99 704.991Z" fill="#5C966C"/>
</g>
<g opacity="0.86">
<path d="M1391.82 697.325L1410.49 693.113C1410.49 693.113 1409.9 833.657 1410.49 830.351C1410.63 829.578 1385.94 825.669 1385.94 825.669L1391.82 697.325Z" fill="#304851"/>
<path d="M1440.69 416.605L1423.79 441.79L1397.72 455.897L1385.57 155L1440.69 416.605Z" fill="#3D754E"/>
<path d="M1362.37 441.971L1323.69 623.261L1341.21 644.083L1341.7 643.498C1350.86 576.849 1367.58 513.163 1369.22 446.677L1362.37 441.971Z" fill="#254C30"/>
<path d="M1405.28 447.154L1366.39 460.802L1341.7 643.6L1404.02 570.562L1405.28 447.154Z" fill="#2C5B3C"/>
<path d="M1404.02 570.562L1452.31 601.871L1460.85 596.941L1426.07 438.031L1404.02 447.045V570.562Z" fill="#3D754E"/>
<path d="M1440.69 416.605L1423.56 433.077L1405.28 447.045L1367.27 460.995L1348.96 454.895L1356.99 467.819L1366.39 474.167L1427.48 444.463L1440.69 416.605Z" fill="#1F3A24"/>
<path d="M1409.43 829.005L1465.82 862.867C1465.46 859.566 1454.77 713.948 1458.94 715.118L1405.28 693.113L1409.43 829.005Z" fill="#3D754E"/>
<path d="M1457.97 856.29L1468.58 971.601L1397.24 984.434L1385.95 823.816L1409.43 827.147L1457.97 856.29Z" fill="#3D754E"/>
<path d="M1413.9 830.417L1397.24 984.434L1287.37 964.668C1286.32 966.629 1306.8 844.12 1306.8 844.12C1309.43 843.377 1413.9 830.417 1413.9 830.417Z" fill="#2C5B3C"/>
<path d="M1385.57 155L1348.96 454.895L1366.39 460.7L1386.24 164.962L1385.57 155Z" fill="#254C30"/>
<path d="M1405.28 447.045L1386.24 164.962C1377.64 263.547 1369.42 362.114 1366.39 460.694L1367.27 460.983L1405.28 447.045Z" fill="#2C5B3C"/>
<path d="M1277.29 833.247L1291.91 854.292L1384.04 846.032L1412.32 848.784L1459.2 868.997L1477.51 871.887L1484.09 848.784L1457.97 858.154L1413.9 830.417L1385.95 825.675L1277.29 833.247Z" fill="#1F3A24"/>
<path d="M1330.31 634.266L1306.81 712.065L1334.92 715.118L1342.88 645.151L1330.31 634.266Z" fill="#254C30"/>
<path d="M1413.9 830.417L1307.12 836.559L1334.92 715.118L1405.28 698.99L1413.9 830.417Z" fill="#2C5B3C"/>
<path d="M1404.7 571.111L1345.63 620.944C1345.28 619.659 1334.92 715.112 1334.92 715.112L1405.28 693.107L1404.7 571.111Z" fill="#2C5B3C"/>
<path d="M1422.92 446.677L1452.57 603.265L1460.85 596.942L1427.48 444.463L1422.92 446.677Z" fill="#5C966C"/>
<path d="M1389.21 172.275L1423.56 433.077L1440.69 416.605L1386.33 158.632L1389.21 172.275Z" fill="#5C966C"/>
<path d="M1323.69 623.255L1341.7 643.601L1404.02 570.562L1452.31 601.871L1460.85 596.942L1456.3 615.079L1404.7 581.368L1341.14 658.6L1326.85 645.694L1323.69 623.255Z" fill="#1F3A24"/>
<path d="M1320.59 718.177L1334.92 715.118L1307.12 836.559L1277.29 833.247L1320.59 718.177Z" fill="#254C30"/>
<path d="M1291.91 854.293L1306.05 850.6L1287.38 964.668L1274 937.269L1291.91 854.293Z" fill="#254C30"/>
<path d="M1306.81 712.065L1334.04 714.877L1405.28 693.119L1478.73 705.434L1460.77 727.481L1405.28 698.99L1333.07 723.765L1306.81 712.065Z" fill="#1F3A24"/>
<path d="M1404.7 581.368L1403.87 693.548L1459.15 715.118L1478.94 705.434L1455.63 611L1404.7 581.368Z" fill="#3D754E"/>
</g>
<g opacity="0.86">
<path d="M1282.74 771.232L1296.97 768.023C1296.97 768.023 1296.52 875.113 1296.97 872.594C1297.07 872.005 1278.27 869.026 1278.27 869.026L1282.74 771.232Z" fill="#304851"/>
<path d="M1319.97 557.334L1307.1 576.524L1287.24 587.273L1277.98 358L1319.97 557.334Z" fill="#3D754E"/>
<path d="M1260.31 576.662L1230.85 714.798L1244.19 730.664L1244.57 730.218C1251.55 679.434 1264.28 630.908 1265.53 580.248L1260.31 576.662Z" fill="#254C30"/>
<path d="M1293 580.611L1263.38 591.011L1244.57 730.297L1292.04 674.644L1293 580.611Z" fill="#2C5B3C"/>
<path d="M1292.04 674.644L1328.82 698.5L1335.33 694.744L1308.83 573.66L1292.04 580.529V674.644Z" fill="#3D754E"/>
<path d="M1319.97 557.333L1306.92 569.885L1293 580.528L1264.04 591.157L1250.1 586.509L1256.22 596.357L1263.38 601.194L1309.91 578.56L1319.97 557.333Z" fill="#1F3A24"/>
<path d="M1296.16 871.568L1339.11 897.37C1338.84 894.855 1330.69 783.899 1333.87 784.791L1292.99 768.023L1296.16 871.568Z" fill="#3D754E"/>
<path d="M1333.13 892.358L1341.22 980.221L1286.87 990L1278.27 867.615L1296.16 870.152L1333.13 892.358Z" fill="#3D754E"/>
<path d="M1299.56 872.645L1286.87 990L1203.18 974.939C1202.38 976.433 1217.99 883.085 1217.99 883.085C1219.99 882.52 1299.56 872.645 1299.56 872.645Z" fill="#2C5B3C"/>
<path d="M1277.98 358L1250.1 586.51L1263.38 590.932L1278.49 365.59L1277.98 358Z" fill="#254C30"/>
<path d="M1293 580.528L1278.49 365.59C1271.94 440.709 1265.68 515.814 1263.37 590.928L1264.04 591.148L1293 580.528Z" fill="#2C5B3C"/>
<path d="M1333.74 897.375L1341.22 980.222L1358 956.085L1348.02 901.329L1339.18 893.444L1333.74 897.375Z" fill="#5C966C"/>
<path d="M1195.51 874.8L1206.64 890.836L1276.82 884.542L1298.36 886.639L1334.07 902.041L1348.02 904.243L1353.03 886.639L1333.13 893.779L1299.56 872.644L1278.27 869.031L1195.51 874.8Z" fill="#1F3A24"/>
<path d="M1329.88 788.69L1333.13 893.779L1353.03 886.639L1335.26 791.453L1329.88 788.69Z" fill="#5C966C"/>
<path d="M1235.89 723.184L1217.99 782.464L1239.41 784.79L1245.47 731.478L1235.89 723.184Z" fill="#254C30"/>
<path d="M1299.56 872.645L1218.23 877.325L1239.4 784.791L1293 772.502L1299.56 872.645Z" fill="#2C5B3C"/>
<path d="M1292.56 675.062L1247.56 713.032C1247.29 712.053 1239.4 784.785 1239.4 784.785L1292.99 768.018L1292.56 675.062Z" fill="#2C5B3C"/>
<path d="M1306.44 580.248L1329.02 699.562L1335.33 694.744L1309.91 578.561L1306.44 580.248Z" fill="#5C966C"/>
<path d="M1280.76 371.162L1306.93 569.885L1319.97 557.334L1278.56 360.768L1280.76 371.162Z" fill="#5C966C"/>
<path d="M1230.85 714.793L1244.57 730.296L1292.04 674.643L1328.82 698.499L1335.33 694.743L1331.86 708.563L1292.56 682.877L1244.14 741.725L1233.26 731.891L1230.85 714.793Z" fill="#1F3A24"/>
<path d="M1228.49 787.122L1239.41 784.791L1218.23 877.325L1195.51 874.801L1228.49 787.122Z" fill="#254C30"/>
<path d="M1206.64 890.836L1217.41 888.022L1203.19 974.938L1193 954.061L1206.64 890.836Z" fill="#254C30"/>
<path d="M1217.99 782.464L1238.73 784.606L1293 768.028L1348.95 777.411L1335.26 794.21L1293 772.501L1237.99 791.378L1217.99 782.464Z" fill="#1F3A24"/>
<path d="M1292.56 682.877L1291.93 768.354L1334.03 784.79L1349.11 777.411L1331.35 705.456L1292.56 682.877Z" fill="#3D754E"/>
<path d="M1325.31 702.04L1334.03 784.791L1349.11 777.412L1331.95 705.925L1325.31 702.04Z" fill="#5C966C"/>
</g>
</g>
<path d="M-353 987.964C-353 987.964 203.88 941.238 660.207 977.643C1089.24 1011.87 1894 1017 1894 1017C1894 1017 1694.67 966.003 1388.91 953.572C1083.18 941.14 918.689 881.416 846.325 858.4C773.961 835.384 495.466 799.76 176.726 871.867C-41.4944 921.242 76.7688 927.154 -353 987.964Z" fill="#FEFFEF"/>
<path d="M137.576 345.271C137.576 345.271 141.803 354.718 137.053 363.991C137.053 363.991 133.742 367.633 131.581 369.742C131.581 369.742 129.819 373.648 129.305 375.307C128.787 376.928 129.38 376.003 129.38 376.003C129.38 376.003 131.489 375.347 133.41 377.137C133.41 377.137 136.083 376.264 137.741 378.826C137.741 378.826 134.395 377.619 133.193 379.313C133.193 379.313 123.547 388.092 117.956 387.555C117.956 387.555 113.767 389.138 112.604 389.262C112.604 389.262 116.685 386.674 116.606 383.669C116.527 380.665 112.219 377.252 109.38 377.555C106.542 377.859 102.01 378.5 98.6426 377.413C95.3091 376.321 92.1835 371.999 92.1835 371.999C92.1835 371.999 97.2457 377.288 101.476 376.092C105.71 374.935 119.76 373.706 121.463 376.693C121.463 376.693 122.403 378.041 122.758 376.829C123.082 375.659 124.007 371.374 130.494 364.106C130.494 364.106 132.461 357.596 136.036 354.474C139.61 351.353 137.576 345.271 137.576 345.271Z" fill="url(#paint0_linear_590_177)" fill-opacity="0.5"/>
<path d="M1257.56 239.105C1257.56 239.105 1257.14 249.446 1248.77 255.639C1248.77 255.639 1244.18 257.427 1241.31 258.355C1241.31 258.355 1237.99 261.07 1236.79 262.327C1235.61 263.548 1236.55 262.984 1236.55 262.984C1236.55 262.984 1238.73 263.334 1239.65 265.792C1239.65 265.792 1242.44 266.2 1242.78 269.231C1242.78 269.231 1240.32 266.662 1238.49 267.644C1238.49 267.644 1225.95 271.217 1221.18 268.249C1221.18 268.249 1216.72 267.803 1215.63 267.398C1215.63 267.398 1220.43 266.895 1221.7 264.168C1222.97 261.442 1220.62 256.469 1217.95 255.479C1215.27 254.488 1210.93 253.047 1208.39 250.575C1205.89 248.114 1205.02 242.853 1205.02 242.853C1205.02 242.853 1207.2 249.842 1211.52 250.652C1215.83 251.499 1228.96 256.648 1229.15 260.081C1229.15 260.081 1229.4 261.706 1230.25 260.778C1231.06 259.875 1233.8 256.448 1242.84 252.824C1242.84 252.824 1247.5 247.868 1252.09 246.663C1256.68 245.457 1257.56 239.105 1257.56 239.105Z" fill="url(#paint1_linear_590_177)" fill-opacity="0.5"/>
<path d="M876.18 301.29C876.18 301.29 870.622 310.021 860.266 311.163C860.266 311.163 855.403 310.404 852.452 309.761C852.452 309.761 848.222 310.442 846.554 310.927C844.916 311.386 846.014 311.372 846.014 311.372C846.014 311.372 847.723 312.771 847.286 315.361C847.286 315.361 849.487 317.112 848.262 319.906C848.262 319.906 847.427 316.448 845.351 316.377C845.351 316.377 832.712 313.161 830.08 308.198C830.08 308.198 826.452 305.573 825.708 304.671C825.708 304.671 830.116 306.652 832.581 304.932C835.045 303.211 835.521 297.735 833.705 295.533C831.888 293.331 828.857 289.902 827.911 286.492C826.986 283.108 828.872 278.119 828.872 278.119C828.872 278.119 827.245 285.257 830.573 288.13C833.871 291.027 842.634 302.078 841.078 305.145C841.078 305.145 840.471 306.671 841.678 306.3C842.833 305.926 846.92 304.338 856.558 305.75C856.558 305.75 863.075 303.807 867.649 305.072C872.223 306.337 876.18 301.29 876.18 301.29Z" fill="url(#paint2_linear_590_177)" fill-opacity="0.5"/>
<path d="M491.483 126.335C491.483 126.335 498.137 134.263 496.109 144.482C496.109 144.482 493.921 148.891 492.42 151.512C492.42 151.512 491.796 155.751 491.756 157.487C491.701 159.188 492.018 158.137 492.018 158.137C492.018 158.137 493.867 156.928 496.205 158.124C496.205 158.124 498.537 156.552 500.833 158.562C500.833 158.562 497.284 158.317 496.592 160.275C496.592 160.275 489.72 171.361 484.196 172.376C484.196 172.376 480.601 175.046 479.516 175.484C479.516 175.484 482.733 171.876 481.833 169.008C480.934 166.141 475.856 164.038 473.209 165.108C470.563 166.177 466.38 168.035 462.843 167.911C459.338 167.775 455.148 164.474 455.148 164.474C455.148 164.474 461.465 168.174 465.206 165.865C468.962 163.593 482.138 158.562 484.594 160.969C484.594 160.969 485.867 162.007 485.876 160.745C485.868 159.531 485.584 155.156 489.831 146.389C489.831 146.389 489.94 139.589 492.523 135.608C495.106 131.627 491.483 126.335 491.483 126.335Z" fill="url(#paint3_linear_590_177)" fill-opacity="0.5"/>
</g>
<defs>
<filter id="filter0_d_590_177" x="0" y="0" width="1448" height="959" filterUnits="userSpaceOnUse" color-interpolation-filters="sRGB">
<feFlood flood-opacity="0" result="BackgroundImageFix"/>
<feColorMatrix in="SourceAlpha" type="matrix" values="0 0 0 0 0 0 0 0 0 0 0 0 0 0 0 0 0 0 127 0" result="hardAlpha"/>
<feOffset dy="4"/>
<feGaussianBlur stdDeviation="2"/>
<feComposite in2="hardAlpha" operator="out"/>
<feColorMatrix type="matrix" values="0 0 0 0 0 0 0 0 0 0 0 0 0 0 0 0 0 0 0.25 0"/>
<feBlend mode="normal" in2="BackgroundImageFix" result="effect1_dropShadow_590_177"/>
<feBlend mode="normal" in="SourceGraphic" in2="effect1_dropShadow_590_177" result="shape"/>
</filter>
<linearGradient id="paint0_linear_590_177" x1="140.643" y1="365.596" x2="92.0633" y2="370.792" gradientUnits="userSpaceOnUse">
<stop stop-color="#16181B"/>
<stop offset="0.9946" stop-color="#285A86"/>
</linearGradient>
<linearGradient id="paint1_linear_590_177" x1="1251.27" y1="258.673" x2="1205.45" y2="241.718" gradientUnits="userSpaceOnUse">
<stop stop-color="#16181B"/>
<stop offset="0.9946" stop-color="#285A86"/>
</linearGradient>
<linearGradient id="paint2_linear_590_177" x1="860.904" y1="315.043" x2="829.814" y2="277.354" gradientUnits="userSpaceOnUse">
<stop stop-color="#16181B"/>
<stop offset="0.9946" stop-color="#285A86"/>
</linearGradient>
<linearGradient id="paint3_linear_590_177" x1="500.001" y1="145.042" x2="454.702" y2="163.346" gradientUnits="userSpaceOnUse">
<stop stop-color="#16181B"/>
<stop offset="0.9946" stop-color="#285A86"/>
</linearGradient>
<clipPath id="clip0_590_177">
<rect width="1440" height="951" fill="white" transform="translate(4)"/>
</clipPath>
</defs>
</svg>
